<?xml version="1.0" encoding="utf-8"?>
<!-- Generator: Adobe Illustrator 27.5.0, SVG Export Plug-In . SVG Version: 6.00 Build 0)  -->
<svg version="1.1" xmlns="http://www.w3.org/2000/svg" xmlns:xlink="http://www.w3.org/1999/xlink" x="0px" y="0px"
	 viewBox="0 0 500 500" style="enable-background:new 0 0 500 500;" xml:space="preserve">
<g id="Background_Complete">
	<g>
		<rect y="382.398" style="fill:#EBEBEB;" width="500" height="0.25"/>
		<rect x="416.779" y="398.494" style="fill:#EBEBEB;" width="33.122" height="0.25"/>
		<rect x="322.527" y="401.208" style="fill:#EBEBEB;" width="8.693" height="0.25"/>
		<rect x="396.586" y="389.208" style="fill:#EBEBEB;" width="19.192" height="0.25"/>
		<rect x="52.459" y="390.888" style="fill:#EBEBEB;" width="43.193" height="0.25"/>
		<rect x="104.556" y="390.888" style="fill:#EBEBEB;" width="6.333" height="0.25"/>
		<rect x="131.471" y="395.111" style="fill:#EBEBEB;" width="93.676" height="0.25"/>
		<path style="fill:#EBEBEB;" d="M237.014,337.8H43.915c-3.147,0-5.708-2.561-5.708-5.708V60.66c0-3.147,2.561-5.708,5.708-5.708
			h193.099c3.146,0,5.707,2.561,5.707,5.708v271.432C242.721,335.239,240.16,337.8,237.014,337.8z M43.915,55.203
			c-3.01,0-5.458,2.448-5.458,5.458v271.432c0,3.01,2.448,5.458,5.458,5.458h193.099c3.009,0,5.457-2.448,5.457-5.458V60.66
			c0-3.009-2.448-5.458-5.457-5.458H43.915z"/>
		<path style="fill:#EBEBEB;" d="M453.31,337.8H260.212c-3.147,0-5.707-2.561-5.707-5.708V60.66c0-3.147,2.561-5.708,5.707-5.708
			H453.31c3.148,0,5.708,2.561,5.708,5.708v271.432C459.019,335.239,456.458,337.8,453.31,337.8z M260.212,55.203
			c-3.009,0-5.457,2.448-5.457,5.458v271.432c0,3.01,2.448,5.458,5.457,5.458H453.31c3.01,0,5.458-2.448,5.458-5.458V60.66
			c0-3.009-2.448-5.458-5.458-5.458H260.212z"/>
	</g>
	<g>
		<path style="fill:#F5F5F5;" d="M412.014,287.389l-9.522-29.988l-11.204-35.299l-0.002,0.007l-0.001-0.004l-18.351,65.285h-1.627
			l-4.597-14.478c-0.001-0.009,0-0.018-0.006-0.03l-16.124-50.773l0,0.002l-0.002-0.005l-18.351,65.285h-1.624l-5.78-18.204
			l-4.335-13.646l-10.616-33.435l-0.002,0.006l-0.003-0.007l-11.734,41.736l-6.617,23.551h-1.624l-9.522-29.988l-11.204-35.299
			l-0.002,0.007l-0.001-0.004l-18.35,65.285h-1.624l-5.78-18.204l-4.413-13.895l-10.537-33.186l-0.002,0.006l-0.003-0.007
			l-11.734,41.736l-6.617,23.551h-1.624l-4.597-14.478c-0.001-0.009,0-0.018-0.006-0.03l-16.124-50.773l0,0.002l-0.002-0.005
			l-18.351,65.285h-1.626l-9.522-29.988l-11.204-35.299l-0.002,0.007l-0.001-0.004l-18.351,65.285h-1.624l-5.779-18.204
			L117.04,255.8l-10.7-33.696l-0.002,0.006l-0.002-0.007l-11.734,41.736l-6.617,23.551v40.134h324.029L412.014,287.389
			L412.014,287.389z"/>
		<path style="fill:#F0F0F0;" d="M443.985,333.668l-11.401-35.906l-13.415-42.265l-0.002,0.008l-0.002-0.005l-21.972,78.168h-1.948
			l-5.504-17.335c-0.001-0.011,0-0.022-0.008-0.036l-19.305-60.792l-0.001,0.003l-0.002-0.006l-21.972,78.168h-1.944l-6.92-21.796
			l-5.19-16.339L321.689,255.5l-0.002,0.007l-0.003-0.009l-14.049,49.972l-7.923,28.198h-1.944l-11.401-35.906l-13.415-42.265
			l-0.003,0.008l-0.002-0.005l-21.972,78.168h-1.944l-6.92-21.796l-5.284-16.637L224.21,255.5l-0.002,0.007l-0.003-0.009
			l-14.049,49.972l-7.923,28.198h-1.944l-5.505-17.335c-0.001-0.011,0-0.022-0.008-0.036l-19.305-60.792l-0.001,0.003l-0.002-0.006
			l-21.972,78.168h-1.947l-11.401-35.906l-13.415-42.265l-0.002,0.008l-0.002-0.005l-21.972,78.168h-1.945l-6.92-21.796
			l-5.09-16.027L77.991,255.5l-0.002,0.007l-0.003-0.009L63.937,305.47l-7.923,28.198v48.054h387.971L443.985,333.668
			L443.985,333.668z"/>
	</g>
	<g>
		<g>
			<polygon style="fill:#F0F0F0;" points="379.939,383.433 429.425,383.433 419.425,209.834 389.939,209.834 			"/>
			<rect x="387.869" y="205.631" style="fill:#EBEBEB;" width="33.626" height="8.965"/>
		</g>
		<g>
			<polygon style="fill:#F0F0F0;" points="319.939,383.433 369.425,383.433 359.425,209.834 329.939,209.834 			"/>
			<rect x="327.869" y="205.631" style="fill:#EBEBEB;" width="33.626" height="8.965"/>
		</g>
		<polygon style="fill:#E0E0E0;" points="209.677,304.015 209.677,291.797 178.569,304.015 178.569,291.797 147.461,304.015 
			147.461,291.797 116.353,304.015 116.353,291.797 78.821,306.538 78.442,306.538 78.442,221.217 59.133,221.217 59.133,383.433 
			66.42,383.433 78.442,383.433 240.786,383.433 240.786,315.437 240.786,306.538 240.786,291.797 		"/>
		<rect x="172.193" y="339.362" style="fill:#F0F0F0;" width="94.451" height="44.072"/>
		<path style="fill:#F0F0F0;" d="M158.759,338.46h-15.648c-2.233,0-4.044,1.81-4.044,4.044v30.857c0,1.898,1.313,3.48,3.077,3.915
			v6.158h2.581v-6.029h4.919v6.029h2.581v-6.029h4.919v6.029h2.581v-6.158c1.764-0.435,3.077-2.016,3.077-3.915v-30.857
			C162.803,340.27,160.993,338.46,158.759,338.46z"/>
		<path style="fill:#F0F0F0;" d="M129.875,338.46h-15.647c-2.233,0-4.044,1.81-4.044,4.044v30.857c0,1.898,1.313,3.48,3.077,3.915
			v6.158h2.581v-6.029h4.919v6.029h2.581v-6.029h4.919v6.029h2.581v-6.158c1.764-0.435,3.077-2.016,3.077-3.915v-30.857
			C133.919,340.27,132.109,338.46,129.875,338.46z"/>
		<path style="fill:#F0F0F0;" d="M100.991,338.46H85.343c-2.233,0-4.044,1.81-4.044,4.044v30.857c0,1.898,1.313,3.48,3.077,3.915
			v6.158h2.581v-6.029h4.919v6.029h2.581v-6.029h4.919v6.029h2.581v-6.158c1.764-0.435,3.077-2.016,3.077-3.915v-30.857
			C105.035,340.27,103.224,338.46,100.991,338.46z"/>
		<rect x="331.964" y="356.124" style="fill:#E0E0E0;" width="53.801" height="27.309"/>
		<rect x="273.238" y="356.124" style="fill:#E0E0E0;" width="53.801" height="27.309"/>
		<rect x="392.447" y="356.124" style="fill:#E0E0E0;" width="53.801" height="27.309"/>
		<path style="fill:#E0E0E0;" d="M77.178,194.46c-0.198-3.806,8.11-5.388,9.692-2.224c1.582,3.165-1.582,5.539-1.582,5.539
			s4.747,1.9,0.791,4.807c-3.956,2.907-5.538,0-5.538,0s-4.549,4.094-5.736,2.511c-1.187-1.582,1.187-2.814,1.187-2.814
			s-3.824,0.243-3.297-3.515C73.222,195.006,77.178,194.46,77.178,194.46z"/>
		<path style="fill:#E0E0E0;" d="M65.152,212.19c-0.099-1.903,4.055-2.694,4.846-1.112c0.791,1.582-0.791,2.769-0.791,2.769
			s2.374,0.95,0.396,2.404c-1.978,1.454-2.769,0-2.769,0s-2.275,2.047-2.868,1.256c-0.593-0.791,0.593-1.407,0.593-1.407
			s-1.912,0.121-1.648-1.758C63.174,212.463,65.152,212.19,65.152,212.19z"/>
		<path style="fill:#E0E0E0;" d="M63.542,172.558c-0.284-5.463,11.641-7.735,13.913-3.192s-2.271,7.95-2.271,7.95
			s6.814,2.728,1.136,6.901c-5.679,4.173-7.95,0-7.95,0s-6.53,5.876-8.234,3.605c-1.704-2.271,1.704-4.04,1.704-4.04
			s-5.49,0.349-4.732-5.046C57.863,173.341,63.542,172.558,63.542,172.558z"/>
		<path style="fill:#E0E0E0;" d="M348.538,175.679c-0.198-3.806,8.11-5.388,9.692-2.224c1.582,3.165-1.582,5.539-1.582,5.539
			s4.747,1.9,0.791,4.807c-3.956,2.907-5.538,0-5.538,0s-4.549,4.094-5.736,2.511s1.187-2.814,1.187-2.814s-3.824,0.243-3.297-3.515
			C344.582,176.225,348.538,175.679,348.538,175.679z"/>
		<path style="fill:#E0E0E0;" d="M336.512,193.41c-0.099-1.903,4.055-2.694,4.846-1.112c0.791,1.582-0.791,2.769-0.791,2.769
			s2.374,0.95,0.396,2.404c-1.978,1.453-2.769,0-2.769,0s-2.275,2.047-2.868,1.256c-0.593-0.791,0.593-1.407,0.593-1.407
			s-1.912,0.122-1.648-1.758C334.534,193.683,336.512,193.41,336.512,193.41z"/>
		<path style="fill:#E0E0E0;" d="M334.902,153.777c-0.284-5.463,11.641-7.735,13.913-3.192c2.271,4.543-2.272,7.95-2.272,7.95
			s6.815,2.728,1.136,6.9c-5.679,4.173-7.95,0-7.95,0s-6.531,5.877-8.234,3.605c-1.704-2.271,1.704-4.04,1.704-4.04
			s-5.49,0.349-4.732-5.046C329.223,154.56,334.902,153.777,334.902,153.777z"/>
		<path style="fill:#E0E0E0;" d="M408.141,175.941c-0.198-3.806,8.11-5.388,9.692-2.224c1.582,3.165-1.582,5.539-1.582,5.539
			s4.747,1.9,0.791,4.807c-3.956,2.907-5.538,0-5.538,0s-4.549,4.094-5.736,2.511s1.187-2.814,1.187-2.814s-3.824,0.243-3.297-3.515
			C404.185,176.487,408.141,175.941,408.141,175.941z"/>
		<path style="fill:#E0E0E0;" d="M396.115,193.672c-0.099-1.903,4.055-2.694,4.846-1.112c0.791,1.582-0.791,2.769-0.791,2.769
			s2.374,0.95,0.396,2.404c-1.978,1.454-2.769,0-2.769,0s-2.275,2.047-2.868,1.256c-0.593-0.791,0.593-1.407,0.593-1.407
			s-1.912,0.121-1.648-1.758C394.137,193.945,396.115,193.672,396.115,193.672z"/>
		<path style="fill:#E0E0E0;" d="M394.504,154.039c-0.284-5.463,11.641-7.735,13.913-3.192c2.272,4.543-2.271,7.95-2.271,7.95
			s6.814,2.727,1.136,6.9c-5.679,4.173-7.95,0-7.95,0s-6.53,5.876-8.234,3.605c-1.704-2.271,1.704-4.04,1.704-4.04
			s-5.49,0.349-4.732-5.046C388.826,154.822,394.504,154.039,394.504,154.039z"/>
	</g>
</g>
<g id="Background_Simple" style="display:none;">
	<g style="display:inline;">
		<path style="fill:#407BFF;" d="M409.412,368.354c-27.919,59.449-127.059,51.062-165.317,9.255
			c-38.258-41.806-50.696-68.599-85.208-52.983c-34.512,15.616-78.518,11.44-81.043-38.164s37.913-108.263,102.09-125.615
			c64.177-17.352,64.161-78.759,149.1-66.368c46.31,6.756,47.365,56.86,40.825,98.301S441.79,299.41,409.412,368.354z"/>
		<path style="opacity:0.9;fill:#FFFFFF;" d="M409.412,368.354c-27.919,59.449-127.059,51.062-165.317,9.255
			c-38.258-41.806-50.696-68.599-85.208-52.983c-34.512,15.616-78.518,11.44-81.043-38.164s37.913-108.263,102.09-125.615
			c64.177-17.352,64.161-78.759,149.1-66.368c46.31,6.756,47.365,56.86,40.825,98.301S441.79,299.41,409.412,368.354z"/>
	</g>
</g>
<g id="Shadow_1_">
	<ellipse id="_x3C_Path_x3E__359_" style="fill:#F5F5F5;" cx="250" cy="416.238" rx="193.889" ry="11.323"/>
</g>
<g id="Building_1">
	<g>
		<g>
			<g>
				<path style="fill:#407BFF;" d="M232.427,230.165v-72.401h-47.085v72.401c0,32.315-6.212,64.328-18.296,94.299l0,0h83.678h0
					C238.639,294.494,232.427,262.48,232.427,230.165z"/>
				<path style="opacity:0.4;fill:#FFFFFF;" d="M250.726,324.465h-83.677c12.08-29.97,18.291-61.988,18.291-94.302v-72.398h47.088
					v72.398c0,16.161,1.551,32.24,4.615,48.03C240.108,293.983,244.686,309.484,250.726,324.465z"/>
				<path style="opacity:0.4;fill:#FFFFFF;" d="M220.585,324.465h-53.536c12.08-29.97,18.291-61.988,18.291-94.302v-72.398h23.544
					v72.398c0,16.161,0.994,32.24,2.953,48.03C213.796,293.983,216.719,309.484,220.585,324.465z"/>
			</g>
			<rect x="184.099" y="154.242" style="fill:#407BFF;" width="49.574" height="5.513"/>
			<rect x="184.099" y="154.242" style="opacity:0.2;fill:#FFFFFF;" width="26.838" height="5.513"/>
			<g>
				<rect x="185.339" y="169.956" style="opacity:0.2;enable-background:new    ;" width="47.088" height="1.744"/>
				<rect x="185.339" y="185.991" style="opacity:0.2;enable-background:new    ;" width="47.088" height="1.744"/>
				<rect x="185.339" y="202.033" style="opacity:0.2;enable-background:new    ;" width="47.088" height="1.744"/>
				<rect x="185.339" y="218.068" style="opacity:0.2;enable-background:new    ;" width="47.088" height="1.751"/>
				<path style="opacity:0.2;enable-background:new    ;" d="M232.494,235.854h-47.222c0.015-0.579,0.03-1.158,0.037-1.744h47.147
					C232.465,234.697,232.479,235.275,232.494,235.854z"/>
				<path style="opacity:0.2;enable-background:new    ;" d="M233.362,251.896h-48.965c0.052-0.586,0.104-1.165,0.141-1.751h48.683
					C233.266,250.732,233.311,251.31,233.362,251.896z"/>
				<path style="opacity:0.2;enable-background:new    ;" d="M235.277,267.931H182.49c0.096-0.579,0.178-1.158,0.26-1.744h52.267
					C235.099,266.766,235.188,267.353,235.277,267.931z"/>
				<path style="opacity:0.2;enable-background:new    ;" d="M238.23,283.974h-58.693c0.126-0.586,0.245-1.165,0.371-1.751h57.951
					C237.978,282.809,238.104,283.388,238.23,283.974z"/>
				<path style="opacity:0.2;enable-background:new    ;" d="M242.304,300.009h-66.833c0.171-0.579,0.341-1.165,0.497-1.744h65.831
					C241.962,298.851,242.126,299.43,242.304,300.009z"/>
				<path style="opacity:0.2;enable-background:new    ;" d="M247.505,316.051h-77.236c0.208-0.579,0.415-1.158,0.616-1.744h75.997
					C247.09,314.893,247.297,315.472,247.505,316.051z"/>
			</g>
		</g>
		<g>
			<g>
				<path style="fill:#407BFF;" d="M152.427,230.165v-72.401h-47.085v72.401c0,32.315-6.212,64.328-18.297,94.299l0,0h83.678h0
					C158.639,294.494,152.427,262.48,152.427,230.165z"/>
				<path style="opacity:0.4;fill:#FFFFFF;" d="M170.726,324.465H87.049c12.08-29.97,18.29-61.988,18.29-94.302v-72.398h47.088
					v72.398c0,16.161,1.551,32.24,4.615,48.03C160.108,293.983,164.686,309.484,170.726,324.465z"/>
				<path style="opacity:0.4;fill:#FFFFFF;" d="M140.585,324.465H87.049c12.08-29.97,18.29-61.988,18.29-94.302v-72.398h23.544
					v72.398c0,16.161,0.994,32.24,2.953,48.03C133.796,293.983,136.719,309.484,140.585,324.465z"/>
			</g>
			<rect x="104.099" y="154.242" style="fill:#407BFF;" width="49.574" height="5.513"/>
			<rect x="104.099" y="154.242" style="opacity:0.2;fill:#FFFFFF;" width="26.838" height="5.513"/>
			<g>
				<rect x="105.339" y="169.956" style="opacity:0.2;enable-background:new    ;" width="47.088" height="1.744"/>
				<rect x="105.339" y="185.991" style="opacity:0.2;enable-background:new    ;" width="47.088" height="1.744"/>
				<rect x="105.339" y="202.033" style="opacity:0.2;enable-background:new    ;" width="47.088" height="1.744"/>
				<rect x="105.339" y="218.068" style="opacity:0.2;enable-background:new    ;" width="47.088" height="1.751"/>
				<path style="opacity:0.2;enable-background:new    ;" d="M152.494,235.854h-47.222c0.015-0.579,0.03-1.158,0.037-1.744h47.147
					C152.465,234.697,152.479,235.275,152.494,235.854z"/>
				<path style="opacity:0.2;enable-background:new    ;" d="M153.362,251.896h-48.965c0.052-0.586,0.104-1.165,0.141-1.751h48.683
					C153.266,250.732,153.311,251.31,153.362,251.896z"/>
				<path style="opacity:0.2;enable-background:new    ;" d="M155.277,267.931H102.49c0.097-0.579,0.178-1.158,0.26-1.744h52.267
					C155.099,266.766,155.188,267.353,155.277,267.931z"/>
				<path style="opacity:0.2;enable-background:new    ;" d="M158.23,283.974H99.537c0.126-0.586,0.245-1.165,0.371-1.751h57.951
					C157.978,282.809,158.104,283.388,158.23,283.974z"/>
				<path style="opacity:0.2;enable-background:new    ;" d="M162.304,300.009H95.471c0.171-0.579,0.341-1.165,0.497-1.744h65.831
					C161.962,298.851,162.126,299.43,162.304,300.009z"/>
				<path style="opacity:0.2;enable-background:new    ;" d="M167.505,316.051H90.269c0.208-0.579,0.415-1.158,0.616-1.744h75.997
					C167.09,314.893,167.297,315.472,167.505,316.051z"/>
			</g>
		</g>
		<g>
			<g>
				<rect x="135.154" y="298.246" style="fill:#407BFF;" width="35.534" height="18.376"/>
				<rect x="174.665" y="298.246" style="fill:#407BFF;" width="35.534" height="18.376"/>
				<rect x="95.643" y="298.246" style="fill:#407BFF;" width="35.534" height="18.376"/>
				<g style="opacity:0.2;enable-background:new    ;">
					<rect x="135.154" y="298.246" width="35.534" height="18.376"/>
					<rect x="174.665" y="298.246" width="35.534" height="18.376"/>
					<rect x="95.643" y="298.246" width="35.534" height="18.376"/>
				</g>
			</g>
			<polygon style="fill:#407BFF;" points="174.711,316.622 174.711,298.246 135.182,316.616 135.182,298.246 95.652,316.616 
				95.652,298.246 56.111,316.622 56.111,405.339 254.824,405.339 254.824,316.622 			"/>
			<rect x="197.066" y="316.622" style="opacity:0.2;enable-background:new    ;" width="57.758" height="88.717"/>
		</g>
		<g>
			<g>
				<path style="fill:#407BFF;" d="M80.59,390.803h6.866v-52.262c0-2.97,2.408-5.378,5.378-5.378h4.401
					c1.896,0,3.433-1.537,3.433-3.433l0,0c0-1.896-1.537-3.433-3.433-3.433h-4.401c-6.762,0-12.244,5.482-12.244,12.244V390.803z"/>
			</g>
			<g style="opacity:0.3;">
				<path style="fill:#FFFFFF;" d="M80.59,390.803h6.866v-52.262c0-2.97,2.408-5.378,5.378-5.378h4.401
					c1.896,0,3.433-1.537,3.433-3.433l0,0c0-1.896-1.537-3.433-3.433-3.433h-4.401c-6.762,0-12.244,5.482-12.244,12.244V390.803z"/>
			</g>
		</g>
		<g>
			<g>
				<path style="fill:#407BFF;" d="M60.59,390.803h6.866v-52.262c0-2.97,2.408-5.378,5.378-5.378h4.401
					c1.896,0,3.433-1.537,3.433-3.433l0,0c0-1.896-1.537-3.433-3.433-3.433h-4.401c-6.762,0-12.244,5.482-12.244,12.244V390.803z"/>
			</g>
			<g style="opacity:0.3;">
				<path style="fill:#FFFFFF;" d="M60.59,390.803h6.866v-52.262c0-2.97,2.408-5.378,5.378-5.378h4.401
					c1.896,0,3.433-1.537,3.433-3.433l0,0c0-1.896-1.537-3.433-3.433-3.433h-4.401c-6.762,0-12.244,5.482-12.244,12.244V390.803z"/>
			</g>
		</g>
		<g>
			<polygon style="fill:#407BFF;" points="95.64,378.359 95.64,405.339 41.59,405.339 41.59,391.849 52.59,378.359 			"/>
			<polygon style="opacity:0.4;fill:#FFFFFF;" points="95.64,378.359 95.64,405.339 41.59,405.339 41.59,391.849 52.59,378.359 			
				"/>
			<polygon style="opacity:0.2;enable-background:new    ;" points="95.64,378.359 95.64,405.339 81.59,405.339 81.59,391.849 
				92.59,378.359 			"/>
			<polygon style="opacity:0.4;fill:#FFFFFF;" points="41.59,391.849 81.59,391.849 92.59,378.359 52.59,378.359 			"/>
		</g>
		<g>
			<polygon style="opacity:0.2;fill:#FFFFFF;enable-background:new    ;" points="117.002,336.176 110.735,341.582 110.735,405.339 
				137.154,405.339 137.154,341.582 137.154,336.176 			"/>
			<polygon style="opacity:0.2;enable-background:new    ;" points="130.888,341.582 130.888,405.339 137.154,405.339 
				137.154,341.582 137.154,336.176 			"/>
			<polygon style="opacity:0.4;fill:#FFFFFF;" points="110.735,341.582 130.888,341.582 137.154,336.176 117.002,336.176 			"/>
		</g>
		<g>
			<polygon style="opacity:0.2;fill:#FFFFFF;enable-background:new    ;" points="157.001,336.176 150.735,341.582 150.735,405.339 
				177.154,405.339 177.154,341.582 177.154,336.176 			"/>
			<polygon style="opacity:0.2;enable-background:new    ;" points="170.888,341.582 170.888,405.339 177.154,405.339 
				177.154,341.582 177.154,336.176 			"/>
			<polygon style="opacity:0.4;fill:#FFFFFF;" points="150.735,341.582 170.888,341.582 177.154,336.176 157.001,336.176 			"/>
		</g>
		<g>
			<path style="fill:#407BFF;" d="M132.794,120.479c-0.198-3.806,8.11-5.388,9.692-2.224c1.583,3.165-1.582,5.539-1.582,5.539
				s4.747,1.9,0.791,4.807c-3.956,2.907-5.538,0-5.538,0s-4.549,4.094-5.736,2.511s1.187-2.814,1.187-2.814
				s-3.824,0.243-3.297-3.515C128.838,121.025,132.794,120.479,132.794,120.479z"/>
			<path style="fill:#407BFF;" d="M120.767,138.21c-0.099-1.903,4.055-2.694,4.846-1.112c0.791,1.582-0.791,2.769-0.791,2.769
				s2.374,0.95,0.396,2.404c-1.978,1.453-2.769,0-2.769,0s-2.275,2.047-2.868,1.256c-0.593-0.791,0.593-1.407,0.593-1.407
				s-1.912,0.122-1.648-1.758C118.789,138.482,120.767,138.21,120.767,138.21z"/>
			<path style="fill:#407BFF;" d="M119.157,98.577c-0.284-5.463,11.641-7.735,13.913-3.192s-2.271,7.95-2.271,7.95
				s6.814,2.727,1.136,6.9c-5.679,4.173-7.95,0-7.95,0s-6.531,5.876-8.234,3.605c-1.704-2.271,1.704-4.04,1.704-4.04
				s-5.489,0.349-4.732-5.046C113.479,99.36,119.157,98.577,119.157,98.577z"/>
			<path style="opacity:0.8;fill:#FFFFFF;" d="M132.794,120.479c-0.198-3.806,8.11-5.388,9.692-2.224
				c1.583,3.165-1.582,5.539-1.582,5.539s4.747,1.9,0.791,4.807c-3.956,2.907-5.538,0-5.538,0s-4.549,4.094-5.736,2.511
				s1.187-2.814,1.187-2.814s-3.824,0.243-3.297-3.515C128.838,121.025,132.794,120.479,132.794,120.479z"/>
			<path style="opacity:0.8;fill:#FFFFFF;" d="M120.767,138.21c-0.099-1.903,4.055-2.694,4.846-1.112
				c0.791,1.582-0.791,2.769-0.791,2.769s2.374,0.95,0.396,2.404c-1.978,1.453-2.769,0-2.769,0s-2.275,2.047-2.868,1.256
				c-0.593-0.791,0.593-1.407,0.593-1.407s-1.912,0.122-1.648-1.758C118.789,138.482,120.767,138.21,120.767,138.21z"/>
			<path style="opacity:0.8;fill:#FFFFFF;" d="M119.157,98.577c-0.284-5.463,11.641-7.735,13.913-3.192s-2.271,7.95-2.271,7.95
				s6.814,2.727,1.136,6.9c-5.679,4.173-7.95,0-7.95,0s-6.531,5.876-8.234,3.605c-1.704-2.271,1.704-4.04,1.704-4.04
				s-5.489,0.349-4.732-5.046C113.479,99.36,119.157,98.577,119.157,98.577z"/>
		</g>
		<g>
			<path style="fill:#407BFF;" d="M212.794,120.479c-0.198-3.806,8.11-5.388,9.692-2.224c1.583,3.165-1.582,5.539-1.582,5.539
				s4.747,1.9,0.791,4.807c-3.956,2.907-5.538,0-5.538,0s-4.549,4.094-5.736,2.511s1.187-2.814,1.187-2.814
				s-3.824,0.243-3.297-3.515C208.838,121.025,212.794,120.479,212.794,120.479z"/>
			<path style="fill:#407BFF;" d="M200.767,138.21c-0.099-1.903,4.055-2.694,4.846-1.112c0.791,1.582-0.791,2.769-0.791,2.769
				s2.374,0.95,0.396,2.404c-1.978,1.453-2.769,0-2.769,0s-2.275,2.047-2.868,1.256s0.593-1.407,0.593-1.407
				s-1.912,0.122-1.648-1.758C198.789,138.482,200.767,138.21,200.767,138.21z"/>
			<path style="fill:#407BFF;" d="M199.157,98.577c-0.284-5.463,11.641-7.735,13.913-3.192s-2.271,7.95-2.271,7.95
				s6.814,2.727,1.136,6.9c-5.679,4.173-7.95,0-7.95,0s-6.531,5.876-8.234,3.605c-1.704-2.271,1.704-4.04,1.704-4.04
				s-5.49,0.349-4.732-5.046C193.479,99.36,199.157,98.577,199.157,98.577z"/>
			<path style="opacity:0.8;fill:#FFFFFF;" d="M212.794,120.479c-0.198-3.806,8.11-5.388,9.692-2.224
				c1.583,3.165-1.582,5.539-1.582,5.539s4.747,1.9,0.791,4.807c-3.956,2.907-5.538,0-5.538,0s-4.549,4.094-5.736,2.511
				s1.187-2.814,1.187-2.814s-3.824,0.243-3.297-3.515C208.838,121.025,212.794,120.479,212.794,120.479z"/>
			<path style="opacity:0.8;fill:#FFFFFF;" d="M200.767,138.21c-0.099-1.903,4.055-2.694,4.846-1.112
				c0.791,1.582-0.791,2.769-0.791,2.769s2.374,0.95,0.396,2.404c-1.978,1.453-2.769,0-2.769,0s-2.275,2.047-2.868,1.256
				s0.593-1.407,0.593-1.407s-1.912,0.122-1.648-1.758C198.789,138.482,200.767,138.21,200.767,138.21z"/>
			<path style="opacity:0.8;fill:#FFFFFF;" d="M199.157,98.577c-0.284-5.463,11.641-7.735,13.913-3.192s-2.271,7.95-2.271,7.95
				s6.814,2.727,1.136,6.9c-5.679,4.173-7.95,0-7.95,0s-6.531,5.876-8.234,3.605c-1.704-2.271,1.704-4.04,1.704-4.04
				s-5.49,0.349-4.732-5.046C193.479,99.36,199.157,98.577,199.157,98.577z"/>
		</g>
	</g>
</g>
<g id="Tank_1">
	<g>
		<g>
			<path style="fill:#263238;" d="M161.532,343.871v48.58c0,5.53-4.49,10.02-10.03,10.02h-34.81c-5.53,0-10.02-4.49-10.02-10.02
				v-48.58c0-5.53,4.49-10.02,10.02-10.02h34.81C157.042,333.851,161.532,338.341,161.532,343.871z"/>
			<path style="opacity:0.1;fill:#FFFFFF;" d="M142.532,343.871v48.58c0,5.53-4.49,10.02-10.03,10.02h-15.81
				c-5.53,0-10.02-4.49-10.02-10.02v-48.58c0-5.53,4.49-10.02,10.02-10.02h15.81C138.042,333.851,142.532,338.341,142.532,343.871z"
				/>
		</g>
		<g>
			
				<line style="fill:none;stroke:#263238;stroke-width:2;stroke-linecap:round;stroke-linejoin:round;stroke-miterlimit:10;" x1="108.735" y1="402.469" x2="159.469" y2="402.469"/>
			<g>
				
					<polyline style="fill:none;stroke:#263238;stroke-width:2;stroke-linecap:round;stroke-linejoin:round;stroke-miterlimit:10;" points="
					110.893,413.339 110.893,402.471 122.498,413.339 122.498,402.471 134.102,413.339 134.102,402.471 145.707,413.339 
					145.707,402.471 157.311,413.339 157.311,402.471 				"/>
			</g>
		</g>
		
			<line style="fill:none;stroke:#263238;stroke-width:2;stroke-linecap:round;stroke-linejoin:round;stroke-miterlimit:10;" x1="119.201" y1="333.851" x2="149.003" y2="333.851"/>
		
			<line style="fill:none;stroke:#263238;stroke-width:2;stroke-linecap:round;stroke-linejoin:round;stroke-miterlimit:10;" x1="123.456" y1="328.996" x2="144.748" y2="328.996"/>
		
			<line style="fill:none;stroke:#263238;stroke-width:2;stroke-linecap:round;stroke-linejoin:round;stroke-miterlimit:10;" x1="134.102" y1="328.996" x2="134.102" y2="333.851"/>
		<g>
			
				<line style="fill:none;stroke:#263238;stroke-width:2;stroke-linecap:round;stroke-linejoin:round;stroke-miterlimit:10;" x1="126.245" y1="328.996" x2="127.959" y2="333.851"/>
			
				<line style="fill:none;stroke:#263238;stroke-width:2;stroke-linecap:round;stroke-linejoin:round;stroke-miterlimit:10;" x1="141.959" y1="328.996" x2="140.245" y2="333.851"/>
		</g>
	</g>
</g>
<g id="Tank_2">
	<g>
		<g>
			<path style="fill:#263238;" d="M231.532,343.871v48.58c0,5.53-4.49,10.02-10.03,10.02h-34.81c-5.53,0-10.02-4.49-10.02-10.02
				v-48.58c0-5.53,4.49-10.02,10.02-10.02h34.81C227.042,333.851,231.532,338.341,231.532,343.871z"/>
			<path style="opacity:0.1;fill:#FFFFFF;" d="M212.532,343.871v48.58c0,5.53-4.49,10.02-10.03,10.02h-15.81
				c-5.53,0-10.02-4.49-10.02-10.02v-48.58c0-5.53,4.49-10.02,10.02-10.02h15.81C208.042,333.851,212.532,338.341,212.532,343.871z"
				/>
		</g>
		<g>
			
				<line style="fill:none;stroke:#263238;stroke-width:2;stroke-linecap:round;stroke-linejoin:round;stroke-miterlimit:10;" x1="178.735" y1="402.469" x2="229.469" y2="402.469"/>
			<g>
				
					<polyline style="fill:none;stroke:#263238;stroke-width:2;stroke-linecap:round;stroke-linejoin:round;stroke-miterlimit:10;" points="
					180.893,413.339 180.893,402.471 192.498,413.339 192.498,402.471 204.102,413.339 204.102,402.471 215.707,413.339 
					215.707,402.471 227.311,413.339 227.311,402.471 				"/>
			</g>
		</g>
		
			<line style="fill:none;stroke:#263238;stroke-width:2;stroke-linecap:round;stroke-linejoin:round;stroke-miterlimit:10;" x1="189.201" y1="333.851" x2="219.003" y2="333.851"/>
		
			<line style="fill:none;stroke:#263238;stroke-width:2;stroke-linecap:round;stroke-linejoin:round;stroke-miterlimit:10;" x1="193.456" y1="328.996" x2="214.748" y2="328.996"/>
		
			<line style="fill:none;stroke:#263238;stroke-width:2;stroke-linecap:round;stroke-linejoin:round;stroke-miterlimit:10;" x1="204.102" y1="328.996" x2="204.102" y2="333.851"/>
		<g>
			
				<line style="fill:none;stroke:#263238;stroke-width:2;stroke-linecap:round;stroke-linejoin:round;stroke-miterlimit:10;" x1="196.245" y1="328.996" x2="197.959" y2="333.851"/>
			
				<line style="fill:none;stroke:#263238;stroke-width:2;stroke-linecap:round;stroke-linejoin:round;stroke-miterlimit:10;" x1="211.959" y1="328.996" x2="210.245" y2="333.851"/>
		</g>
	</g>
</g>
<g id="Building_2">
	<g>
		<g>
			<rect x="265.11" y="248.631" style="fill:#407BFF;" width="106.945" height="48.66"/>
			<rect x="265.11" y="248.631" style="opacity:0.2;enable-background:new    ;" width="106.945" height="48.66"/>
			<rect x="323.395" y="248.631" style="opacity:0.2;enable-background:new    ;" width="48.66" height="48.66"/>
			<rect x="265.11" y="257.539" style="opacity:0.2;fill:#FFFFFF;" width="78.857" height="15.422"/>
			<rect x="353.132" y="257.539" style="opacity:0.2;enable-background:new    ;" width="13.648" height="37.451"/>
			<rect x="353.132" y="258.857" style="opacity:0.2;enable-background:new    ;" width="12.264" height="36.132"/>
			<g>
				<rect x="287.355" y="258.857" style="opacity:0.2;fill:#FFFFFF;" width="6.82" height="14.104"/>
				<rect x="294.868" y="258.857" style="opacity:0.2;fill:#FFFFFF;" width="6.82" height="14.104"/>
				<rect x="279.842" y="258.857" style="opacity:0.2;fill:#FFFFFF;" width="6.821" height="14.104"/>
				<rect x="272.33" y="258.857" style="opacity:0.2;fill:#FFFFFF;" width="6.82" height="14.104"/>
				<rect x="302.381" y="258.857" style="opacity:0.2;fill:#FFFFFF;" width="6.82" height="14.104"/>
				<rect x="336.582" y="258.857" style="opacity:0.2;fill:#FFFFFF;" width="6.066" height="14.104"/>
				<rect x="265.11" y="258.857" style="opacity:0.2;fill:#FFFFFF;" width="6.528" height="14.104"/>
				<rect x="309.894" y="258.857" style="opacity:0.2;fill:#FFFFFF;" width="6.821" height="14.104"/>
				<rect x="317.407" y="258.857" style="opacity:0.2;fill:#FFFFFF;" width="11.758" height="14.104"/>
				<rect x="329.857" y="258.857" style="opacity:0.2;fill:#FFFFFF;" width="6.033" height="14.104"/>
			</g>
		</g>
		<g>
			<rect x="261.301" y="244.352" style="fill:#407BFF;" width="116.359" height="6.528"/>
			<rect x="326.575" y="244.352" style="opacity:0.2;enable-background:new    ;" width="51.084" height="6.528"/>
		</g>
		<g>
			<path style="fill:none;stroke:#263238;stroke-width:2;stroke-miterlimit:10;" d="M374.692,293.615v-13
				c0-2.039,1.653-3.692,3.692-3.692h43.32c2.039,0,3.692,1.653,3.692,3.692v11.683"/>
			
				<line style="fill:none;stroke:#263238;stroke-width:2;stroke-miterlimit:10;" x1="380.326" y1="276.923" x2="380.326" y2="293.615"/>
			
				<line style="fill:none;stroke:#263238;stroke-width:2;stroke-miterlimit:10;" x1="385.96" y1="276.923" x2="385.96" y2="293.615"/>
			
				<line style="fill:none;stroke:#263238;stroke-width:2;stroke-miterlimit:10;" x1="391.594" y1="276.923" x2="391.594" y2="293.615"/>
			
				<line style="fill:none;stroke:#263238;stroke-width:2;stroke-miterlimit:10;" x1="397.228" y1="276.923" x2="397.228" y2="293.615"/>
			
				<line style="fill:none;stroke:#263238;stroke-width:2;stroke-miterlimit:10;" x1="402.861" y1="276.923" x2="402.861" y2="293.615"/>
			
				<line style="fill:none;stroke:#263238;stroke-width:2;stroke-miterlimit:10;" x1="408.495" y1="276.923" x2="408.495" y2="293.615"/>
			
				<line style="fill:none;stroke:#263238;stroke-width:2;stroke-miterlimit:10;" x1="414.129" y1="276.923" x2="414.129" y2="293.615"/>
			
				<line style="fill:none;stroke:#263238;stroke-width:2;stroke-miterlimit:10;" x1="419.763" y1="276.923" x2="419.763" y2="293.615"/>
		</g>
		<rect x="249.665" y="293.006" style="fill:#407BFF;" width="175.731" height="120.333"/>
		<rect x="261.301" y="347.212" style="fill:#407BFF;" width="14.356" height="27.461"/>
		<rect x="261.301" y="347.212" style="opacity:0.2;fill:#FFFFFF;" width="14.356" height="27.461"/>
		<rect x="283.059" y="347.212" style="fill:#407BFF;" width="14.357" height="27.461"/>
		<rect x="283.059" y="347.212" style="opacity:0.2;fill:#FFFFFF;" width="14.357" height="27.461"/>
		<rect x="304.817" y="347.212" style="fill:#407BFF;" width="14.356" height="27.461"/>
		<rect x="304.817" y="347.212" style="opacity:0.2;fill:#FFFFFF;" width="14.356" height="27.461"/>
		<rect x="326.575" y="347.212" style="fill:#407BFF;" width="14.356" height="27.461"/>
		<rect x="326.575" y="347.212" style="opacity:0.2;fill:#FFFFFF;" width="14.356" height="27.461"/>
		<rect x="348.333" y="347.212" style="fill:#407BFF;" width="14.357" height="27.461"/>
		<rect x="348.333" y="347.212" style="opacity:0.2;fill:#FFFFFF;" width="14.357" height="27.461"/>
		<g style="opacity:0.4;">
			<rect x="262.736" y="348.681" style="fill:#FFFFFF;" width="12.921" height="6.314"/>
			<rect x="262.736" y="356.773" style="fill:#FFFFFF;" width="12.921" height="17.9"/>
			<rect x="284.495" y="348.681" style="fill:#FFFFFF;" width="12.921" height="6.314"/>
			<rect x="284.495" y="356.773" style="fill:#FFFFFF;" width="12.921" height="17.9"/>
			<rect x="306.253" y="348.681" style="fill:#FFFFFF;" width="12.921" height="6.314"/>
			<rect x="306.253" y="356.773" style="fill:#FFFFFF;" width="12.921" height="17.9"/>
			<rect x="328.011" y="348.681" style="fill:#FFFFFF;" width="12.921" height="6.314"/>
			<rect x="328.011" y="356.773" style="fill:#FFFFFF;" width="12.921" height="17.9"/>
			<rect x="349.77" y="348.681" style="fill:#FFFFFF;" width="12.92" height="6.314"/>
			<rect x="349.77" y="356.773" style="fill:#FFFFFF;" width="12.92" height="17.9"/>
		</g>
		<rect x="374.692" y="293.006" style="opacity:0.2;enable-background:new    ;" width="50.704" height="120.333"/>
		<g>
			<g>
				<path style="fill:#407BFF;" d="M414.363,413.339h-10v-76.113c0-4.326-3.507-7.832-7.832-7.832h-6.41c-2.761,0-5-2.239-5-5l0,0
					c0-2.761,2.239-5,5-5h6.41c9.848,0,17.832,7.984,17.832,17.832V413.339z"/>
			</g>
			<g style="opacity:0.2;">
				<path style="fill:#FFFFFF;" d="M414.363,413.339h-10v-76.113c0-4.326-3.507-7.832-7.832-7.832h-6.41c-2.761,0-5-2.239-5-5l0,0
					c0-2.761,2.239-5,5-5h6.41c9.848,0,17.832,7.984,17.832,17.832V413.339z"/>
			</g>
		</g>
		<g>
			<g>
				<path style="fill:#407BFF;" d="M441.363,413.339h-10v-76.113c0-4.326-3.507-7.832-7.832-7.832h-6.41c-2.761,0-5-2.239-5-5l0,0
					c0-2.761,2.239-5,5-5h6.41c9.848,0,17.832,7.984,17.832,17.832V413.339z"/>
			</g>
			<g style="opacity:0.2;">
				<path style="fill:#FFFFFF;" d="M441.363,413.339h-10v-76.113c0-4.326-3.507-7.832-7.832-7.832h-6.41c-2.761,0-5-2.239-5-5l0,0
					c0-2.761,2.239-5,5-5h6.41c9.848,0,17.832,7.984,17.832,17.832V413.339z"/>
			</g>
		</g>
		<g>
			<polygon style="fill:#263238;" points="445.604,393.89 397.586,393.89 397.586,413.339 453.604,413.339 453.604,401.703 			"/>
			<polygon style="opacity:0.2;" points="453.6,401.7 453.6,413.34 424.6,413.34 424.6,401.7 416.6,393.89 445.6,393.89 			"/>
			<polygon style="opacity:0.2;fill:#FFFFFF;" points="416.6,393.89 424.6,401.7 453.6,401.7 445.6,393.89 			"/>
		</g>
		<g>
			<rect x="246.301" y="290.352" style="fill:#407BFF;" width="188.095" height="6.528"/>
			<rect x="246.301" y="290.352" style="opacity:0.1;fill:#FFFFFF;" width="188.095" height="6.528"/>
			<rect x="377.659" y="290.352" style="opacity:0.2;enable-background:new    ;" width="56.736" height="6.528"/>
		</g>
		<rect x="261.301" y="307.212" style="fill:#407BFF;" width="14.356" height="27.461"/>
		<rect x="261.301" y="307.212" style="opacity:0.2;fill:#FFFFFF;" width="14.356" height="27.461"/>
		<rect x="283.059" y="307.212" style="fill:#407BFF;" width="14.357" height="27.461"/>
		<rect x="283.059" y="307.212" style="opacity:0.2;fill:#FFFFFF;" width="14.357" height="27.461"/>
		<rect x="304.817" y="307.212" style="fill:#407BFF;" width="14.356" height="27.461"/>
		<rect x="304.817" y="307.212" style="opacity:0.2;fill:#FFFFFF;" width="14.356" height="27.461"/>
		<rect x="326.575" y="307.212" style="fill:#407BFF;" width="14.356" height="27.461"/>
		<rect x="326.575" y="307.212" style="opacity:0.2;fill:#FFFFFF;" width="14.356" height="27.461"/>
		<rect x="348.333" y="307.212" style="fill:#407BFF;" width="14.357" height="27.461"/>
		<rect x="348.333" y="307.212" style="opacity:0.2;fill:#FFFFFF;" width="14.357" height="27.461"/>
		<g style="opacity:0.4;">
			<rect x="262.736" y="308.681" style="fill:#FFFFFF;" width="12.921" height="6.314"/>
			<rect x="262.736" y="316.773" style="fill:#FFFFFF;" width="12.921" height="17.9"/>
			<rect x="284.495" y="308.681" style="fill:#FFFFFF;" width="12.921" height="6.314"/>
			<rect x="284.495" y="316.773" style="fill:#FFFFFF;" width="12.921" height="17.9"/>
			<rect x="306.253" y="308.681" style="fill:#FFFFFF;" width="12.921" height="6.314"/>
			<rect x="306.253" y="316.773" style="fill:#FFFFFF;" width="12.921" height="17.9"/>
			<rect x="328.011" y="308.681" style="fill:#FFFFFF;" width="12.921" height="6.314"/>
			<rect x="328.011" y="316.773" style="fill:#FFFFFF;" width="12.921" height="17.9"/>
			<rect x="349.77" y="308.681" style="fill:#FFFFFF;" width="12.92" height="6.314"/>
			<rect x="349.77" y="316.773" style="fill:#FFFFFF;" width="12.92" height="17.9"/>
		</g>
	</g>
</g>
<g id="Truck">
	<g>
		<g>
			<polygon style="fill:#263238;" points="238.601,414.548 270.971,414.548 270.971,389.88 246.721,389.88 238.601,402.88 			"/>
			<polygon style="opacity:0.2;fill:#FFFFFF;" points="238.601,414.548 270.971,414.548 270.971,389.88 246.721,389.88 
				238.601,402.88 			"/>
			<rect x="258.777" y="389.88" style="opacity:0.2;" width="12.195" height="24.668"/>
		</g>
		<g>
			<path style="fill:#263238;" d="M275.571,417.466c0-2.84-2.302-5.142-5.142-5.142c-2.84,0-5.142,2.302-5.142,5.142
				c0,2.84,2.302,5.142,5.142,5.142C273.268,422.608,275.571,420.306,275.571,417.466z"/>
			<path style="opacity:0.2;" d="M275.571,417.466c0-2.84-2.302-5.142-5.142-5.142c-2.84,0-5.142,2.302-5.142,5.142
				c0,2.84,2.302,5.142,5.142,5.142C273.268,422.608,275.571,420.306,275.571,417.466z"/>
			<path style="fill:#263238;" d="M274.591,417.466c0-2.84-2.302-5.142-5.142-5.142c-2.84,0-5.142,2.302-5.142,5.142
				c0,2.84,2.302,5.142,5.142,5.142C272.289,422.608,274.591,420.306,274.591,417.466z"/>
			<path style="opacity:0.2;" d="M272.606,417.466c0-1.743-1.413-3.157-3.156-3.157c-1.743,0-3.157,1.413-3.157,3.157
				c0,1.743,1.413,3.156,3.157,3.156C271.193,420.622,272.606,419.209,272.606,417.466z"/>
		</g>
		<g>
			<path style="fill:#263238;" d="M314.744,417.466c0-2.84-2.302-5.142-5.142-5.142s-5.142,2.302-5.142,5.142
				c0,2.84,2.302,5.142,5.142,5.142S314.744,420.306,314.744,417.466z"/>
			<path style="opacity:0.2;" d="M314.744,417.466c0-2.84-2.302-5.142-5.142-5.142s-5.142,2.302-5.142,5.142
				c0,2.84,2.302,5.142,5.142,5.142S314.744,420.306,314.744,417.466z"/>
			<path style="fill:#263238;" d="M313.764,417.466c0-2.84-2.302-5.142-5.142-5.142c-2.84,0-5.142,2.302-5.142,5.142
				c0,2.84,2.302,5.142,5.142,5.142C311.462,422.608,313.764,420.306,313.764,417.466z"/>
			<path style="opacity:0.2;" d="M311.779,417.466c0-1.743-1.413-3.157-3.156-3.157c-1.743,0-3.157,1.413-3.157,3.157
				c0,1.743,1.413,3.156,3.157,3.156C310.366,420.622,311.779,419.209,311.779,417.466z"/>
		</g>
		<g>
			<rect x="260.018" y="383.202" style="fill:#263238;" width="63.839" height="28.535"/>
			<rect x="260.018" y="383.202" style="opacity:0.6;fill:#FFFFFF;" width="63.839" height="28.535"/>
			<rect x="299.974" y="383.202" style="opacity:0.2;" width="23.883" height="28.535"/>
		</g>
		<rect x="301.425" y="384.455" style="opacity:0.2;" width="21.099" height="25.846"/>
		<polygon style="fill:#263238;" points="240.04,402.214 247.227,390.784 256.222,390.784 256.222,397.773 249.971,397.773 
			247.293,402.214 		"/>
		<polygon style="fill:#263238;" points="261.667,411.738 261.667,411.737 245.7,411.737 244.037,414.257 238.26,414.257 
			238.26,417.357 322.524,417.357 322.524,411.738 		"/>
		<rect x="298.919" y="411.738" style="opacity:0.2;" width="23.604" height="5.619"/>
		<g>
			<path style="fill:#263238;" d="M255.984,417.466c0-2.84-2.302-5.142-5.142-5.142c-2.84,0-5.142,2.302-5.142,5.142
				c0,2.84,2.302,5.142,5.142,5.142C253.682,422.608,255.984,420.306,255.984,417.466z"/>
			<path style="opacity:0.2;" d="M255.984,417.466c0-2.84-2.302-5.142-5.142-5.142c-2.84,0-5.142,2.302-5.142,5.142
				c0,2.84,2.302,5.142,5.142,5.142C253.682,422.608,255.984,420.306,255.984,417.466z"/>
			<path style="fill:#263238;" d="M255.005,417.466c0-2.84-2.302-5.142-5.142-5.142c-2.84,0-5.142,2.302-5.142,5.142
				c0,2.84,2.302,5.142,5.142,5.142C252.703,422.608,255.005,420.306,255.005,417.466z"/>
			<path style="opacity:0.2;fill:#FFFFFF;" d="M253.019,417.466c0-1.743-1.413-3.157-3.157-3.157c-1.743,0-3.156,1.413-3.156,3.157
				c0,1.743,1.413,3.156,3.156,3.156C251.606,420.622,253.019,419.209,253.019,417.466z"/>
		</g>
		<g>
			<path style="fill:#263238;" d="M295.157,417.466c0-2.84-2.302-5.142-5.142-5.142c-2.84,0-5.142,2.302-5.142,5.142
				c0,2.84,2.302,5.142,5.142,5.142C292.855,422.608,295.157,420.306,295.157,417.466z"/>
			<path style="opacity:0.2;" d="M295.157,417.466c0-2.84-2.302-5.142-5.142-5.142c-2.84,0-5.142,2.302-5.142,5.142
				c0,2.84,2.302,5.142,5.142,5.142C292.855,422.608,295.157,420.306,295.157,417.466z"/>
			<path style="fill:#263238;" d="M294.178,417.466c0-2.84-2.302-5.142-5.142-5.142c-2.84,0-5.142,2.302-5.142,5.142
				c0,2.84,2.302,5.142,5.142,5.142C291.876,422.608,294.178,420.306,294.178,417.466z"/>
			<path style="opacity:0.2;fill:#FFFFFF;" d="M292.192,417.466c0-1.743-1.413-3.157-3.157-3.157c-1.743,0-3.156,1.413-3.156,3.157
				c0,1.743,1.413,3.156,3.156,3.156C290.779,420.622,292.192,419.209,292.192,417.466z"/>
		</g>
	</g>
</g>
</svg>
