<?xml version='1.0' encoding='utf-8'?>
<svg xmlns="http://www.w3.org/2000/svg" xmlns:xlink="http://www.w3.org/1999/xlink" width="755.9055118110236" height="755.9055118110236"> <defs> <linearGradient id="linearGradient2832"> <stop stop-color="#b27d00" id="stop2834" offset="0"/> <stop stop-color="#624500" id="stop2836" offset="1"/> </linearGradient> <linearGradient xlink:href="#linearGradient2832" id="svg_1" x1="0.139921" y1="1.205173" x2="0.822115" y2="0.926823"/> </defs> <metadata id="metadata4">image/svg+xml</metadata> <g> <title>Layer 1</title> <g id="g3782" transform="matrix(1.29711, 0.146398, -0.146398, 1.29711, -58.1245, -291.839)"> <path fill="#96b466" fill-rule="evenodd" stroke="#555555" stroke-width="1px" d="m378.017822,298.617462c24.687683,-34.904541 20.611847,-58.032516 3.783447,-82.707855c-18.291321,31.318771 -37.154053,48.17392 -3.783447,82.707855z" id="path3784"/> <path fill="#96b466" fill-rule="evenodd" stroke="#555555" stroke-width="1px" d="m373.101135,283.816345c2.723358,-42.666046 20.425232,-58.09845 49.020569,-66.722443c-5.446747,35.857651 -1.361694,60.821838 -49.020569,66.722443z" id="path3786"/> <path fill="#96b466" fill-rule="evenodd" stroke="#555555" stroke-width="1px" d="m373.101135,318.539276c2.723358,-42.666046 20.425232,-58.09848 49.020569,-66.722458c-5.446747,35.857651 -1.361694,60.821823 -49.020569,66.722458z" id="path3788"/> <path fill="#96b466" fill-rule="evenodd" stroke="#555555" stroke-width="1px" d="m379.356232,321.504791c14.710724,-40.142303 4.733826,-61.402069 -17.95694,-80.823593c-9.473389,35.009903 -23.277191,56.20784 17.95694,80.823593z" id="path3790"/> <path fill="#96b466" fill-rule="evenodd" stroke="#555555" stroke-width="1px" d="m373.781982,350.538818c2.723358,-42.666046 20.425232,-58.09845 49.020569,-66.722443c-5.446716,35.857635 -1.361694,60.821838 -49.020569,66.722443z" id="path3792"/> <path fill="#96b466" fill-rule="evenodd" stroke="#555555" stroke-width="1px" d="m378.653381,347.966187c7.620667,-42.068207 -5.848846,-61.305878 -31.529785,-76.555695c-3.339355,36.114899 -13.309998,59.363251 31.529785,76.555695z" id="path3794"/> <path fill="#96b466" fill-rule="evenodd" stroke="#555555" stroke-width="1px" d="m372.420288,381.857544c2.723358,-42.666077 20.425232,-58.09848 49.020569,-66.722473c-5.446716,35.857635 -1.361664,60.821838 -49.020569,66.722473z" id="path3796"/> <path fill="#96b466" fill-rule="evenodd" stroke="#555555" stroke-width="1px" d="m380.701782,381.716949c2.17099,-42.697723 -13.651031,-60.052246 -41.073303,-71.888031c1.312683,36.245209 -5.598846,60.578918 41.073303,71.888031z" id="path3798"/> <path fill="#96b466" fill-rule="evenodd" stroke="#555555" stroke-width="1px" d="m370.377747,415.899597c2.723358,-42.666046 20.425232,-58.09845 49.020569,-66.722443c-5.446716,35.857635 -1.361664,60.821838 -49.020569,66.722443z" id="path3800"/> <path fill="#96b466" fill-rule="evenodd" stroke="#555555" stroke-width="1.06757px" d="m375.043213,871.722534l24.652222,8.296387c-30.969299,-146.366882 -23.905731,-314.319946 -18.89798,-488.440521l-17.091583,3.758942c-5.472137,133.439819 -9.916351,342.945374 11.337341,476.385193z" id="path3802"/> <path fill="#96b466" fill-rule="evenodd" stroke="#555555" stroke-width="1px" d="m385.356262,415.899597c-2.723358,-42.666046 -20.425232,-58.09845 -49.020569,-66.722443c5.446716,35.857635 1.361664,60.821838 49.020569,66.722443z" id="path3804"/> </g> <g id="g3655" transform="matrix(-1.30534, 0, 0, 1.30534, 783.252, -237.231)"> <path fill="#96b466" fill-rule="evenodd" stroke="#555555" stroke-width="1px" d="m378.017822,298.617462c24.687683,-34.904541 20.611847,-58.032516 3.783447,-82.707855c-18.291321,31.318771 -37.154053,48.17392 -3.783447,82.707855z" id="path1345"/> <path fill="#96b466" fill-rule="evenodd" stroke="#555555" stroke-width="1px" d="m373.101135,283.816345c2.723358,-42.666046 20.425232,-58.09845 49.020569,-66.722443c-5.446747,35.857651 -1.361694,60.821838 -49.020569,66.722443z" id="path1341"/> <path fill="#96b466" fill-rule="evenodd" stroke="#555555" stroke-width="1px" d="m373.101135,318.539276c2.723358,-42.666046 20.425232,-58.09848 49.020569,-66.722458c-5.446747,35.857651 -1.361694,60.821823 -49.020569,66.722458z" id="path1333"/> <path fill="#96b466" fill-rule="evenodd" stroke="#555555" stroke-width="1px" d="m379.356232,321.504791c14.710724,-40.142303 4.733826,-61.402069 -17.95694,-80.823593c-9.473389,35.009903 -23.277191,56.20784 17.95694,80.823593z" id="path1339"/> <path fill="#96b466" fill-rule="evenodd" stroke="#555555" stroke-width="1px" d="m373.781982,350.538818c2.723358,-42.666046 20.425232,-58.09845 49.020569,-66.722443c-5.446716,35.857635 -1.361694,60.821838 -49.020569,66.722443z" id="path1331"/> <path fill="#96b466" fill-rule="evenodd" stroke="#555555" stroke-width="1px" d="m378.653381,347.966187c7.620667,-42.068207 -5.848846,-61.305878 -31.529785,-76.555695c-3.339355,36.114899 -13.309998,59.363251 31.529785,76.555695z" id="path1337"/> <path fill="#96b466" fill-rule="evenodd" stroke="#555555" stroke-width="1px" d="m372.420288,381.857544c2.723358,-42.666077 20.425232,-58.09848 49.020569,-66.722473c-5.446716,35.857635 -1.361664,60.821838 -49.020569,66.722473z" id="path1329"/> <path fill="#96b466" fill-rule="evenodd" stroke="#555555" stroke-width="1px" d="m380.701782,381.716949c2.17099,-42.697723 -13.651031,-60.052246 -41.073303,-71.888031c1.312683,36.245209 -5.598846,60.578918 41.073303,71.888031z" id="path1335"/> <path fill="#96b466" fill-rule="evenodd" stroke="#555555" stroke-width="1px" d="m370.377747,415.899597c2.723358,-42.666046 20.425232,-58.09845 49.020569,-66.722443c-5.446716,35.857635 -1.361664,60.821838 -49.020569,66.722443z" id="path1327"/> <path fill="#96b466" fill-rule="evenodd" stroke="#555555" stroke-width="1.06757px" d="m375.043213,871.722534l24.652222,8.296387c-30.969299,-146.366882 -23.905731,-314.319946 -18.89798,-488.440521l-17.091583,3.758942c-5.472137,133.439819 -9.916351,342.945374 11.337341,476.385193z" id="path1323"/> <path fill="#96b466" fill-rule="evenodd" stroke="#555555" stroke-width="1px" d="m385.356262,415.899597c-2.723358,-42.666046 -20.425232,-58.09845 -49.020569,-66.722443c5.446716,35.857635 1.361664,60.821838 49.020569,66.722443z" id="path1325"/> </g> <g id="g3828" transform="rotate(-8.67395, 289.787, 544.918) matrix(-1.30534, 0, 0, 1.30534, 771.254, -116.361)"> <path fill="#96b466" fill-rule="evenodd" stroke="#555555" stroke-width="1px" d="m367.292725,257.248932c24.687683,-34.904541 20.611847,-58.032501 3.783447,-82.707855c-18.291321,31.318787 -37.154053,48.17392 -3.783447,82.707855z" id="path3830"/> <path fill="#96b466" fill-rule="evenodd" stroke="#555555" stroke-width="1px" d="m362.376038,242.447815c2.723358,-42.666046 20.425232,-58.09845 49.020569,-66.722443c-5.446747,35.857666 -1.361694,60.821838 -49.020569,66.722443z" id="path3832"/> <path fill="#96b466" fill-rule="evenodd" stroke="#555555" stroke-width="1px" d="m362.376038,277.170746c2.723358,-42.666046 20.425232,-58.09848 49.020569,-66.722443c-5.446747,35.857635 -1.361694,60.821808 -49.020569,66.722443z" id="path3834"/> <path fill="#96b466" fill-rule="evenodd" stroke="#555555" stroke-width="1px" d="m368.631134,280.136261c14.710724,-40.142303 4.733826,-61.402069 -17.95694,-80.823578c-9.473389,35.009888 -23.277191,56.207825 17.95694,80.823578z" id="path3836"/> <path fill="#96b466" fill-rule="evenodd" stroke="#555555" stroke-width="1px" d="m363.056885,309.170288c2.723358,-42.666046 20.425232,-58.09845 49.020569,-66.722443c-5.446716,35.857635 -1.361694,60.821838 -49.020569,66.722443z" id="path3838"/> <path fill="#96b466" fill-rule="evenodd" stroke="#555555" stroke-width="1px" d="m367.928284,306.597656c7.620667,-42.068207 -5.848846,-61.305878 -31.529785,-76.555695c-3.339355,36.114899 -13.309998,59.363251 31.529785,76.555695z" id="path3840"/> <path fill="#96b466" fill-rule="evenodd" stroke="#555555" stroke-width="1px" d="m361.69519,340.489014c2.723358,-42.666077 20.425232,-58.09848 49.020569,-66.722473c-5.446716,35.857635 -1.361664,60.821838 -49.020569,66.722473z" id="path3842"/> <path fill="#96b466" fill-rule="evenodd" stroke="#555555" stroke-width="1px" d="m369.976685,340.348419c2.17099,-42.697723 -13.651031,-60.052246 -41.073303,-71.888031c1.312683,36.245209 -5.598846,60.578918 41.073303,71.888031z" id="path3844"/> <path fill="#96b466" fill-rule="evenodd" stroke="#555555" stroke-width="1px" d="m359.652649,374.531067c2.723358,-42.666046 20.425232,-58.09845 49.020569,-66.722443c-5.446716,35.857635 -1.361664,60.821838 -49.020569,66.722443z" id="path3846"/> <path fill="#96b466" fill-rule="evenodd" stroke="#555555" stroke-width="1.06757px" d="m364.318115,830.354004l24.652222,8.296387c-30.969299,-146.366882 -23.905731,-314.319946 -18.89798,-488.440521l-17.091583,3.758942c-5.472137,133.439819 -9.916351,342.945374 11.337341,476.385193z" id="path3848"/> <path fill="#96b466" fill-rule="evenodd" stroke="#555555" stroke-width="1px" d="m374.631165,374.531067c-2.723358,-42.666046 -20.425232,-58.09845 -49.020569,-66.722443c5.446716,35.857635 1.361664,60.821838 49.020569,66.722443z" id="path3850"/> </g> <g id="g3874" transform="rotate(19.3709, 338.062, 471.452) matrix(1.29649, 0.151741, -0.151741, 1.29649, -61.8977, -220.574)"> <path fill="#96b466" fill-rule="evenodd" stroke="#555555" stroke-width="1px" d="m364.401642,241.591293c24.687683,-34.904541 20.611847,-58.032532 3.783447,-82.70787c-18.291321,31.318771 -37.154053,48.173935 -3.783447,82.70787z" id="path3876"/> <path fill="#96b466" fill-rule="evenodd" stroke="#555555" stroke-width="1px" d="m359.484955,226.790146c2.723358,-42.666031 20.425232,-58.098434 49.020569,-66.722427c-5.446747,35.857651 -1.361694,60.821854 -49.020569,66.722427z" id="path3878"/> <path fill="#96b466" fill-rule="evenodd" stroke="#555555" stroke-width="1px" d="m359.484955,261.513123c2.723358,-42.666092 20.425232,-58.098526 49.020569,-66.722488c-5.446747,35.857666 -1.361694,60.821838 -49.020569,66.722488z" id="path3880"/> <path fill="#96b466" fill-rule="evenodd" stroke="#555555" stroke-width="1px" d="m365.740051,264.478638c14.710724,-40.142349 4.733826,-61.402115 -17.95694,-80.823624c-9.473389,35.009888 -23.277191,56.207825 17.95694,80.823624z" id="path3882"/> <path fill="#96b466" fill-rule="evenodd" stroke="#555555" stroke-width="1px" d="m360.165802,293.512634c2.723358,-42.666031 20.425232,-58.098465 49.020569,-66.722427c-5.446716,35.85762 -1.361694,60.821854 -49.020569,66.722427z" id="path3884"/> <path fill="#96b466" fill-rule="evenodd" stroke="#555555" stroke-width="1px" d="m365.037201,290.940002c7.620667,-42.068192 -5.848846,-61.305862 -31.529785,-76.555679c-3.339355,36.114868 -13.309998,59.363235 31.529785,76.555679z" id="path3886"/> <path fill="#96b466" fill-rule="evenodd" stroke="#555555" stroke-width="1px" d="m358.804108,324.83136c2.723358,-42.666077 20.425232,-58.09845 49.020569,-66.722473c-5.446716,35.857666 -1.361664,60.821838 -49.020569,66.722473z" id="path3888"/> <path fill="#96b466" fill-rule="evenodd" stroke="#555555" stroke-width="1px" d="m367.085602,324.690796c2.17099,-42.697754 -13.651031,-60.052246 -41.073303,-71.888077c1.312683,36.245255 -5.598846,60.578934 41.073303,71.888077z" id="path3890"/> <path fill="#96b466" fill-rule="evenodd" stroke="#555555" stroke-width="1px" d="m356.761566,358.873413c2.723358,-42.666016 20.425232,-58.09845 49.020569,-66.722412c-5.446716,35.857605 -1.361664,60.821838 -49.020569,66.722412z" id="path3892"/> <path fill="#96b466" fill-rule="evenodd" stroke="#555555" stroke-width="1.06757px" d="m361.427032,814.69635l24.652222,8.296387c-30.969299,-146.366882 -23.905731,-314.319946 -18.89798,-488.440491l-17.091583,3.758911c-5.472137,133.439819 -9.916351,342.945374 11.337341,476.385193z" id="path3894"/> <path fill="#96b466" fill-rule="evenodd" stroke="#555555" stroke-width="1px" d="m371.740082,358.873413c-2.723358,-42.666016 -20.425232,-58.09845 -49.020569,-66.722412c5.446716,35.857605 1.361664,60.821838 49.020569,66.722412z" id="path3896"/> </g> <path fill="url(#svg_1)" stroke="#000000" stroke-width="5.03115" stroke-linecap="round" stroke-linejoin="round" stroke-miterlimit="4" d="0" id="path2072"/> </g> </svg>